{"title":"Jay and Silent Bobs Super Groovy Cartoon Movie 2013 HDRip x264 A","uid":10101280,"size":774764171,"categoryP":"video","categoryS":"hd___movies","magnet":"?xt=urn:btih:914a4253d26ae7aca73ca50609e127e66db0623a&amp;dn=Jay+and+Silent+Bobs+Super+Groovy+Cartoon+Movie+2013+HDRip+x264+A&amp;tr=udp%3A%2F%2Ftracker.openbittorrent.com%3A80&amp;tr=udp%3A%2F%2Fopen.demonii.com%3A1337&amp;tr=udp%3A%2F%2Ftracker.coppersurfer.tk%3A6969&amp;tr=udp%3A%2F%2Fexodus.desync.com%3A6969","seeders":0,"leechers":2,"uploader":"lokioddin","files":4,"time":1399406237,"description":"[b]SilverTorrent - Clean And Verified Torrents Download[/b]\n\n\n\n\nJay and Silent Bobs Super Groovy Cartoon Movie 2013 HDRip x264 AC3-MiLLENiUM\n\nIMDB\thttp://www.imdb.com/title/tt2783020/\n\n\nFormat                                   : Matroska\nFormat version                           : Version 2\nFile size                                : 719 MiB\nDuration                                 : 1h 3mn\nOverall bit rate mode                    : Variable\nOverall bit rate                         : 1 574 Kbps\nEncoded date                             : UTC 2014-05-06 17:17:58\nWriting application                      : mkvmerge v6.9.1 ('Blue Panther') 32bit built on Apr 18 2014 18:15:44\nWriting library                          : libebml v1.3.0 + libmatroska v1.4.1\n\nVideo\nID                                       : 1\nFormat                                   : AVC\nFormat/Info                              : Advanced Video Codec\nFormat profile                           : &lt;a class=&quot;__cf_email__&quot; href=&quot;/cdn-cgi/l/email-protection&quot; data-cfemail=&quot;f4bc9d939cb4b8c0dac5&quot;&gt;[email&amp;#160;protected]&lt;/a&gt;&lt;script cf-hash='f9e31' type=&quot;text/javascript&quot;&gt;\n/* &lt;![CDATA[ */!function(){try{var t=&quot;currentScript&quot;in document?document.currentScript:function(){for(var t=document.getElementsByTagName(&quot;script&quot;),e=t.length;e--;)if(t[e].getAttribute(&quot;cf-hash&quot;))return t[e]}();if(t&amp;&amp;t.previousSibling){var e,r,n,i,c=t.previousSibling,a=c.getAttribute(&quot;data-cfemail&quot;);if(a){for(e=&quot;&quot;,r=parseInt(a.substr(0,2),16),n=2;a.length-n;n+=2)i=parseInt(a.substr(n,2),16)^r,e+=String.fromCharCode(i);e=document.createTextNode(e),c.parentNode.replaceChild(e,c)}}}catch(u){}}();/* ]]&gt; */&lt;/script&gt;\nFormat settings, CABAC                   : Yes\nFormat settings, ReFrames                : 3 frames\nCodec ID                                 : V_MPEG4/ISO/AVC\nDuration                                 : 1h 3mn\nBit rate mode                            : Variable\nBit rate                                 : 1 159 Kbps\nMaximum bit rate                         : 40.0 Mbps\nWidth                                    : 720 pixels\nHeight                                   : 400 pixels\nDisplay aspect ratio                     : 16:9\nFrame rate mode                          : Constant\nFrame rate                               : 23.976 fps\nColor space                              : YUV\nChroma subsampling                       : 4:2:0\nBit depth                                : 8 bits\nScan type                                : Progressive\nBits/(Pixel*Frame)                       : 0.168\nStream size                              : 529 MiB (74%)\nWriting library                          : x264 core 142 r2409 d6b4e63\n\nAudio\nID                                       : 2\nFormat                                   : AC-3\nFormat/Info                              : Audio Coding 3\nMode extension                           : CM (complete main)\nFormat settings, Endianness              : Big\nCodec ID                                 : A_AC3\nDuration                                 : 1h 3mn\nBit rate mode                            : Constant\nBit rate                                 : 384 Kbps\nChannel(s)                               : 6 channels\nChannel positions                        : Front: L C R, Side: L R, LFE\nSampling rate                            : 48.0 KHz\nBit depth                                : 16 bits\nCompression mode                         : Lossy\nStream size                              : 175 MiB (24%)\nLanguage                                 : English\nDefault                                  : Yes\nForced                                   : No\n\nPlot\n\nAmerican animated comedy film written by Kevin &quot;Silent Bob&quot; Smith, directed by Steve Stark and produced by Jason &quot;Jay&quot; Mewes. The films script was adapted from the Bluntman And Chronic comics story originally written by Smith as a companion piece to the film Jay and Silent Bob Strike Back.\n\nScreenshots\n &lt;a href=&quot;\nhttp://s8.postimg.org/ugvlxz6j9/vlcsnap_2014_05_06_18h19m18s102.png&quot; rel=&quot;nofollow&quot; target=&quot;_NEW&quot;&gt;\nhttp://s8.postimg.org/ugvlxz6j9/vlcsnap_2014_05_06_18h19m18s102.png&lt;/a&gt;\n &lt;a href=&quot;\nhttp://s8.postimg.org/dqk88n845/vlcsnap_2014_05_06_18h19m24s154.png&quot; rel=&quot;nofollow&quot; target=&quot;_NEW&quot;&gt;\nhttp://s8.postimg.org/dqk88n845/vlcsnap_2014_05_06_18h19m24s154.png&lt;/a&gt;\n\n &lt;a href=&quot;\nhttp://s8.postimg.org/eu4cklsr9/vlcsnap_2014_05_06_18h19m37s32.png&quot; rel=&quot;nofollow&quot; target=&quot;_NEW&quot;&gt;\nhttp://s8.postimg.org/eu4cklsr9/vlcsnap_2014_05_06_18h19m37s32.png&lt;/a&gt;\n\n\nSilverTorrent - Clean And Verified Torrents Download\n\n","torrent":{"xt":"urn:btih:914a4253d26ae7aca73ca50609e127e66db0623a","amp;dn":"Jay+and+Silent+Bobs+Super+Groovy+Cartoon+Movie+2013+HDRip+x264+A","amp;tr":["udp%3A%2F%2Ftracker.openbittorrent.com%3A80","udp%3A%2F%2Fopen.demonii.com%3A1337","udp%3A%2F%2Ftracker.coppersurfer.tk%3A6969","udp%3A%2F%2Fexodus.desync.com%3A6969"],"infoHash":"914a4253d26ae7aca73ca50609e127e66db0623a","infoHashBuffer":{"type":"Buffer","data":[145,74,66,83,210,106,231,172,167,60,165,6,9,225,39,230,109,176,98,58]},"announce":[],"urlList":[]}}